<?xml version="1.0" standalone="no"?>
<!DOCTYPE svg PUBLIC "-//W3C//DTD SVG 20010904//EN"
 "http://www.w3.org/TR/2001/REC-SVG-20010904/DTD/svg10.dtd">
<svg version="1.0" xmlns="http://www.w3.org/2000/svg"
 width="2000.000000pt" height="2000.000000pt" viewBox="0 0 2000.000000 2000.000000"
 preserveAspectRatio="xMidYMid meet">
<metadata>
Created by potrace 1.11, written by Peter Selinger 2001-2013
</metadata>
<g transform="translate(0.000000,2000.000000) scale(0.100000,-0.100000)"
fill="#000000" stroke="none">
<path d="M11519 15563 c-19 -16 -45 -38 -59 -50 -31 -27 -59 -52 -129 -111
-30 -26 -67 -59 -83 -74 -16 -16 -33 -28 -38 -28 -4 0 -10 -4 -12 -8 -3 -8
-68 -67 -168 -152 -29 -25 -67 -58 -84 -73 -17 -16 -48 -43 -69 -60 -22 -18
-55 -47 -75 -65 -21 -19 -59 -52 -86 -75 -28 -23 -74 -65 -103 -93 l-53 -51
16 -44 c40 -110 9 -300 -64 -389 -39 -47 -318 -327 -392 -394 l-44 -39 -40 45
c-23 24 -65 72 -95 107 -30 34 -70 79 -90 101 -162 175 -248 266 -323 342 -48
48 -85 88 -82 88 2 0 -20 22 -50 49 -30 27 -52 52 -49 54 2 3 -5 8 -16 12 -12
3 -21 13 -21 21 0 8 -4 14 -8 14 -5 0 -74 64 -154 143 -193 188 -451 437 -453
437 -2 0 -48 45 -103 100 -55 55 -106 100 -114 100 -8 0 -19 5 -26 12 -8 8
-12 9 -12 1 0 -6 -8 -10 -17 -9 -25 4 -52 -35 -62 -88 -4 -25 -7 -47 -5 -48 1
-2 5 -24 8 -50 3 -26 11 -60 17 -75 6 -15 15 -37 19 -48 4 -11 17 -41 29 -66
11 -25 21 -51 21 -58 0 -6 4 -11 9 -11 5 0 13 -9 16 -20 7 -21 132 -216 169
-262 11 -14 32 -41 46 -59 14 -18 50 -63 81 -99 30 -36 64 -76 75 -90 30 -38
304 -309 365 -361 86 -74 133 -113 163 -134 16 -11 41 -30 56 -42 15 -12 30
-20 34 -16 3 3 6 1 6 -4 0 -11 177 -128 192 -128 4 0 13 -6 19 -12 7 -7 16
-13 21 -13 6 0 80 -32 166 -73 12 -6 22 -16 22 -22 0 -7 -32 -41 -71 -76 -40
-35 -84 -75 -99 -89 -15 -14 -56 -50 -91 -81 -35 -31 -76 -67 -90 -80 -14 -13
-56 -51 -94 -84 -37 -33 -84 -74 -104 -92 -68 -61 -84 -73 -93 -73 -5 0 -6 -4
-3 -10 3 -5 3 -10 -2 -10 -4 0 -22 -13 -39 -28 -17 -15 -56 -48 -85 -74 -30
-25 -65 -56 -79 -68 -14 -12 -44 -38 -68 -58 -24 -20 -61 -54 -83 -74 -21 -20
-39 -34 -39 -31 0 2 -13 -8 -29 -24 -16 -15 -50 -47 -77 -70 -27 -22 -59 -51
-71 -62 -13 -12 -23 -19 -23 -15 0 3 -8 -3 -17 -13 -10 -11 -49 -46 -88 -79
-90 -76 -135 -120 -166 -164 -13 -19 -24 -37 -25 -40 0 -3 -4 -12 -7 -20 -26
-59 -37 -112 -37 -174 0 -74 5 -89 30 -95 27 -6 125 -1 158 8 18 5 35 10 37
10 25 0 124 61 166 101 29 28 49 50 45 50 -4 0 3 10 16 23 13 13 48 53 78 90
30 37 58 67 63 67 4 0 7 4 7 10 0 9 13 25 90 109 20 22 51 58 70 82 19 23 52
60 73 81 20 21 37 43 37 48 0 4 3 10 8 12 4 2 39 39 77 83 39 43 77 86 85 95
8 9 26 30 40 47 21 26 58 67 165 188 11 12 48 53 82 91 34 38 70 78 80 90 39
45 160 179 188 209 17 17 44 48 62 69 l32 38 42 -39 c96 -87 349 -343 349
-353 0 -5 7 -10 16 -10 8 0 12 -4 9 -10 -3 -5 2 -10 11 -10 10 0 15 -2 12 -5
-3 -3 22 -34 56 -68 95 -98 225 -237 222 -237 -2 0 20 -24 48 -53 28 -29 85
-90 126 -136 41 -46 80 -89 86 -95 5 -6 50 -56 99 -111 48 -55 92 -101 97
-103 4 -2 8 -8 8 -13 0 -5 17 -27 38 -48 20 -21 53 -58 72 -81 112 -137 185
-190 295 -215 59 -14 169 -15 182 -1 19 18 7 171 -18 231 -7 17 -13 32 -13 35
-1 3 -12 23 -25 45 -26 42 -65 82 -122 127 -19 14 -55 46 -81 70 -26 23 -70
63 -99 88 -29 25 -60 52 -68 60 -9 9 -58 54 -110 100 -52 47 -112 101 -132
120 -21 19 -67 62 -104 95 -69 62 -224 206 -282 261 -18 18 -33 31 -33 29 0
-2 -36 32 -79 74 -44 42 -137 131 -208 197 -70 67 -152 146 -181 175 l-53 53
48 50 c146 153 364 366 403 393 39 26 71 41 103 49 4 1 8 2 10 4 7 5 50 11
117 14 56 3 87 -1 125 -15 l49 -19 66 68 c36 37 85 91 110 120 25 30 54 64 65
76 28 31 129 146 155 176 65 76 108 125 135 154 17 18 46 52 65 75 19 24 52
60 73 81 20 22 37 41 37 44 0 4 14 21 124 141 25 28 46 54 46 58 0 9 -101 -75
-158 -130 -18 -18 -37 -33 -42 -33 -6 0 -10 -7 -10 -17 0 -9 -3 -14 -6 -10 -3
3 -21 -9 -39 -26 -18 -18 -50 -47 -71 -66 -22 -19 -64 -57 -95 -85 -110 -100
-204 -185 -229 -206 -14 -12 -47 -43 -75 -69 -63 -59 -72 -64 -79 -46 -3 8 5
25 19 39 13 13 21 27 18 30 -4 3 1 6 10 6 10 0 17 4 17 9 0 5 15 25 33 43 17
19 57 63 89 99 31 35 75 84 97 107 23 24 41 46 41 49 0 3 12 18 28 33 15 14
54 58 87 95 33 38 71 81 85 96 38 42 126 141 150 168 32 38 13 39 -24 1 -18
-19 -57 -55 -86 -80 -29 -25 -65 -56 -80 -70 -14 -14 -46 -43 -71 -64 -102
-91 -206 -184 -258 -233 -31 -29 -62 -53 -70 -53 -8 0 -12 -3 -8 -6 6 -6 -16
-34 -27 -34 -3 0 -23 -17 -44 -37 -64 -62 -101 -93 -112 -93 -22 0 -6 28 51
90 33 36 79 87 102 114 23 26 56 63 72 80 17 18 59 66 95 106 36 41 84 93 108
118 23 24 42 46 42 49 0 2 12 17 28 33 15 15 54 58 87 96 33 37 70 78 83 90
13 12 19 25 14 28 -5 3 -28 -15 -52 -39 -24 -24 -48 -41 -53 -38 -6 3 -7 1 -3
-5 4 -7 3 -12 -1 -12 -5 0 -37 -27 -72 -60 -35 -33 -65 -60 -67 -60 -2 0 -14
-10 -26 -22 -24 -24 -154 -140 -198 -178 -29 -25 -77 -67 -182 -162 -140 -127
-141 -127 -153 -109 -3 6 12 28 32 49 21 22 57 62 80 89 23 26 62 69 87 96 24
26 43 47 41 47 -2 0 17 22 43 49 26 26 75 79 108 117 34 38 73 81 85 95 13 14
56 61 94 104 39 43 79 88 90 99 29 31 48 56 43 56 -3 0 -21 -12 -39 -27z
m-3109 -143 c-6 -12 -14 -20 -17 -17 -2 3 1 14 8 26 17 26 24 19 9 -9z m-6
-81 c-1 -28 4 -74 12 -102 7 -28 11 -53 9 -55 -2 -2 -7 9 -11 24 -4 16 -9 34
-13 39 -15 26 -21 145 -7 145 7 0 11 -19 10 -51z m2749 -903 c-4 -7 -36 -44
-70 -81 l-62 -68 -58 18 c-32 11 -78 19 -103 18 -28 0 -38 2 -25 7 10 4 58 5
105 3 l85 -4 44 38 c24 21 53 48 64 61 23 25 32 29 20 8z m-1101 -577 c2 -6
-23 -37 -57 -68 -33 -31 -61 -59 -63 -63 -5 -11 -44 -10 -40 1 2 5 23 25 46
45 24 20 40 36 36 36 -4 0 6 11 24 23 17 13 29 27 25 30 -3 4 1 7 10 7 8 0 17
-5 19 -11z m-1532 -1442 c-89 -83 -147 -185 -165 -289 -9 -50 -19 -48 -12 2
13 92 31 137 85 210 27 38 126 127 142 129 3 0 -20 -23 -50 -52z m3056 13 c13
0 74 -63 74 -77 0 -7 4 -13 9 -13 8 0 34 -48 62 -115 5 -11 11 -40 13 -65 5
-41 3 -39 -18 25 -27 83 -62 155 -76 155 -6 0 -10 5 -10 11 0 7 -20 32 -45 56
-25 24 -45 47 -45 51 0 4 7 -1 14 -10 7 -10 17 -18 22 -18z"/>
<path d="M6045 13476 c-37 -35 -44 -92 -15 -128 11 -15 33 -33 48 -40 21 -10
28 -23 33 -58 8 -54 10 -63 42 -210 14 -63 28 -122 32 -131 5 -12 -8 -9 -52
12 -32 16 -67 30 -78 32 -20 4 -51 15 -69 25 -5 3 -6 0 -2 -6 14 -23 -4 -11
-43 29 -23 22 -45 38 -51 34 -5 -3 -10 -1 -10 5 0 6 -4 8 -10 5 -5 -3 -19 -8
-31 -10 -78 -15 -97 -138 -28 -179 16 -9 29 -14 29 -9 0 4 4 3 8 -3 18 -27
112 27 112 66 0 20 2 20 75 4 31 -7 128 -54 156 -76 9 -7 32 -65 52 -128 30
-99 87 -264 112 -324 7 -16 6 -17 -13 -7 -12 7 -22 16 -22 22 0 6 -4 7 -10 4
-5 -3 -10 -1 -10 4 0 6 -5 11 -11 11 -6 0 -17 6 -24 13 -33 29 -45 37 -53 37
-5 0 -15 7 -22 15 -6 8 -15 14 -18 13 -25 -3 -42 4 -36 14 5 7 3 8 -6 3 -7 -4
-15 -3 -19 3 -8 14 -60 24 -128 26 -28 1 -58 8 -66 14 -14 12 -41 17 -79 13
-10 0 -32 -15 -49 -32 -28 -27 -31 -35 -26 -72 8 -58 55 -100 103 -94 56 8 86
38 94 97 4 30 9 35 30 34 40 -3 90 -14 108 -24 9 -6 28 -14 42 -20 36 -14 53
-25 154 -101 67 -50 125 -106 126 -121 0 -11 137 -287 161 -325 l20 -32 -28 9
c-15 4 -50 16 -78 26 -27 9 -57 19 -65 22 -14 5 -37 8 -100 15 -14 1 -38 -1
-54 -5 -22 -6 -35 -2 -61 17 -17 14 -35 22 -38 18 -4 -3 -7 -1 -7 6 0 7 -5 9
-12 4 -7 -4 -19 -8 -26 -9 -30 -5 -62 -36 -71 -71 -24 -86 65 -156 144 -113
25 13 57 70 53 92 -5 22 116 19 191 -5 36 -11 69 -20 74 -19 4 1 7 -2 7 -8 0
-5 7 -10 15 -10 18 0 57 -20 67 -35 4 -5 8 -6 8 -1 0 14 42 -36 70 -83 58 -96
282 -400 302 -409 5 -2 8 -8 8 -13 0 -5 -25 7 -55 26 -30 19 -57 35 -61 35 -3
0 -28 11 -55 25 -27 13 -49 22 -49 20 0 -2 -18 2 -40 10 -22 8 -40 12 -40 8 0
-3 -6 -1 -12 4 -7 6 -21 9 -30 8 -10 -2 -18 1 -18 7 0 6 -6 5 -15 -2 -8 -7
-15 -8 -15 -3 0 5 -30 10 -67 11 -36 2 -70 5 -75 8 -4 3 -8 2 -8 -3 0 -4 -18
-7 -41 -7 -37 1 -60 -2 -159 -21 -19 -4 -43 -7 -52 -8 -10 -1 -18 -4 -18 -8 0
-4 -19 -11 -42 -17 -24 -6 -52 -17 -62 -25 -19 -14 -18 -16 25 -62 52 -57 202
-182 250 -209 120 -69 218 -98 327 -98 97 0 124 4 167 22 17 6 38 13 48 15 39
8 165 88 194 124 11 12 26 2 101 -75 49 -49 107 -105 128 -125 66 -59 68 -65
31 -66 -17 0 -57 -3 -87 -8 -30 -5 -65 -9 -77 -9 -13 -1 -23 -5 -23 -9 0 -4
-6 -7 -12 -5 -17 3 -157 -41 -184 -59 -11 -7 -24 -10 -27 -6 -4 3 -7 2 -7 -4
0 -5 -12 -15 -26 -22 -14 -6 -42 -24 -61 -38 -20 -15 -45 -28 -57 -28 -62 -4
-94 -33 -103 -94 -4 -28 25 -79 53 -92 91 -45 181 45 135 134 -18 36 -18 37 0
42 11 4 19 10 19 14 0 10 136 77 175 87 17 4 35 9 40 13 6 3 15 6 20 7 6 1 28
5 49 9 22 5 37 4 34 -1 -32 -54 -83 -197 -102 -286 -4 -19 -11 -26 -21 -21
-26 9 -84 -38 -91 -74 -12 -63 7 -99 61 -118 47 -16 86 -5 116 33 25 32 21 92
-7 123 -29 32 -8 125 63 281 32 69 39 78 67 83 48 8 145 12 148 6 2 -3 28 -26
58 -51 30 -25 57 -47 60 -50 3 -3 21 -17 40 -30 43 -30 56 -40 81 -62 10 -10
22 -18 25 -18 3 0 23 -13 44 -30 21 -16 43 -30 49 -30 6 0 11 -3 11 -8 0 -4
16 -16 35 -26 40 -22 38 -29 -8 -32 -17 -1 -32 -3 -32 -4 0 -1 -16 -3 -35 -4
-19 -1 -41 -5 -47 -9 -7 -5 -13 -6 -13 -3 0 3 -21 -1 -47 -9 -25 -8 -50 -12
-54 -9 -4 2 -10 0 -13 -5 -4 -5 -28 -17 -55 -26 -27 -9 -75 -35 -108 -57 -34
-25 -72 -43 -92 -44 -83 -8 -122 -110 -65 -168 15 -14 29 -26 33 -27 58 -8 74
-6 101 17 37 32 48 81 26 124 -15 30 -14 33 8 54 29 26 107 66 130 66 9 0 16
4 16 8 0 7 19 12 63 15 9 1 17 4 17 7 0 4 6 7 13 7 6 0 26 3 42 7 102 19 225
28 240 16 44 -34 453 -249 490 -257 14 -2 158 -63 163 -68 2 -2 -11 -2 -30 0
-18 2 -33 4 -33 5 0 4 -164 12 -270 13 -121 0 -255 -8 -310 -19 -16 -4 -39 -7
-50 -9 -11 -1 -27 -5 -35 -8 -8 -4 -27 -8 -42 -11 -15 -3 -32 -7 -38 -11 -5
-3 -20 -8 -32 -10 -78 -15 -298 -162 -298 -199 0 -10 78 -42 125 -52 6 -1 30
-8 55 -15 25 -7 48 -13 53 -15 4 -1 8 -2 10 -4 1 -1 9 -3 17 -5 22 -4 83 -16
100 -19 8 -2 40 -8 71 -15 31 -6 76 -14 100 -17 62 -7 299 -8 329 0 14 3 34 8
45 10 29 6 106 37 135 55 87 52 160 177 160 274 0 32 0 31 46 12 19 -8 38 -15
42 -16 10 -2 22 -6 67 -20 22 -7 42 -14 45 -14 3 -1 12 -4 20 -8 51 -19 109
-34 114 -29 3 3 6 0 6 -7 0 -7 4 -10 8 -7 10 6 72 -24 72 -34 0 -4 -16 -18
-34 -31 -19 -13 -39 -33 -45 -45 -6 -14 -19 -21 -40 -22 -114 -3 -149 -141
-49 -191 23 -11 46 -17 52 -13 6 3 17 7 25 9 22 3 50 36 60 70 7 25 5 40 -9
68 -18 36 -18 36 7 66 14 16 48 41 75 55 44 22 53 24 91 13 23 -7 49 -13 57
-14 8 -1 25 -5 37 -9 12 -4 30 -9 40 -11 10 -2 32 -8 50 -14 17 -5 34 -7 37
-3 3 3 6 0 6 -7 0 -7 4 -9 10 -6 5 3 18 1 27 -4 16 -10 16 -10 -3 -11 -31 0
-116 -31 -149 -54 -85 -61 -132 -118 -171 -211 -13 -32 -27 -51 -40 -54 -32
-6 -64 -49 -64 -86 0 -74 37 -108 110 -103 38 3 48 8 67 37 13 19 23 43 23 53
0 29 -30 88 -45 88 -23 0 -24 27 -1 71 25 50 66 111 81 121 6 3 21 16 35 28
25 22 97 58 135 66 55 13 76 15 150 16 68 0 120 -5 120 -12 0 -1 14 -4 30 -6
65 -8 75 -11 81 -17 4 -4 0 -8 -9 -8 -30 -2 -57 -6 -59 -9 -2 -1 -16 -4 -33
-5 -157 -16 -184 -22 -181 -43 2 -13 12 -17 37 -15 40 2 109 10 159 17 19 3
55 8 80 11 25 4 62 11 84 15 52 11 153 5 256 -16 28 -6 60 -10 135 -18 28 -3
50 -6 50 -7 0 -1 14 -2 30 -3 27 -2 44 8 45 26 0 8 -47 19 -99 23 -20 2 -56 7
-81 10 -25 4 -56 8 -70 10 -36 4 -36 4 -20 15 8 5 27 10 41 10 14 0 29 3 33 7
19 19 270 20 282 1 3 -4 13 -8 23 -8 25 0 110 -46 145 -78 34 -32 89 -116 103
-157 8 -26 6 -32 -18 -53 -36 -30 -46 -79 -25 -120 20 -39 44 -52 93 -52 74 1
116 73 82 141 -16 33 -42 55 -61 51 -4 -1 -23 31 -41 71 -54 118 -170 218
-276 242 -35 8 -51 25 -24 26 23 1 98 15 98 19 0 3 79 20 103 22 6 1 12 6 12
11 0 6 3 8 6 5 3 -3 20 -2 38 3 26 7 42 4 83 -15 27 -14 62 -38 76 -55 25 -30
25 -30 7 -66 -29 -57 1 -129 57 -138 12 -2 25 -6 29 -9 3 -4 21 1 40 9 41 20
66 69 58 112 -7 32 -51 84 -65 76 -4 -3 -10 -1 -13 4 -3 5 -14 7 -25 4 -13 -3
-34 11 -70 47 -29 29 -51 53 -49 55 8 7 54 29 66 32 18 4 35 9 52 15 99 34
187 61 198 61 6 0 12 5 12 10 0 6 3 7 6 4 4 -3 16 -1 28 5 42 24 56 20 56 -13
0 -80 54 -185 123 -241 45 -37 147 -82 212 -93 79 -14 318 -8 405 10 14 3 40
8 59 11 47 8 54 10 166 39 55 14 108 28 118 30 9 2 22 7 28 11 6 4 32 12 58
19 l46 13 -69 66 c-38 36 -72 63 -77 61 -4 -3 -11 0 -14 6 -12 18 -149 77
-221 94 -115 28 -159 36 -214 41 -81 8 -380 11 -380 4 0 -3 -21 -6 -48 -6 -26
-1 -67 -5 -92 -8 -35 -4 -41 -3 -27 5 11 6 24 12 30 13 7 1 38 14 71 29 32 15
63 27 68 27 6 0 35 14 66 31 32 17 59 31 62 32 22 2 40 11 40 20 0 6 3 8 6 4
3 -3 28 8 55 24 28 16 54 29 59 29 5 0 15 6 22 13 7 6 27 19 43 27 17 8 32 17
35 20 3 3 28 17 56 32 45 24 59 27 110 22 33 -3 75 -7 94 -9 19 -2 37 -4 40
-5 3 -1 8 -2 12 -1 16 2 213 -61 219 -70 3 -6 13 -11 21 -12 8 -2 29 -14 46
-28 32 -25 32 -25 16 -58 -32 -64 9 -140 78 -146 95 -8 143 92 81 167 -19 24
-31 29 -75 31 -14 1 -39 13 -55 27 -16 14 -47 34 -68 45 -22 11 -43 23 -46 28
-3 4 -10 7 -15 6 -5 -1 -16 1 -24 4 -8 3 -37 13 -65 22 -45 15 -67 19 -150 30
-16 2 -32 5 -35 6 -5 1 -20 3 -60 8 -9 0 -2 9 16 20 18 11 35 24 39 30 3 6 11
9 16 6 5 -4 9 -2 9 2 0 5 18 19 40 33 22 14 40 28 40 32 0 5 6 8 13 8 7 0 26
12 43 28 17 15 48 39 70 54 21 15 55 41 74 58 78 69 81 70 203 57 45 -5 38 2
75 -72 56 -113 100 -285 73 -285 -15 0 -33 -68 -26 -99 7 -33 49 -76 64 -66 6
3 11 2 11 -3 0 -15 51 -5 79 16 14 10 31 32 37 48 23 56 -33 137 -88 128 -13
-1 -20 8 -28 34 -5 21 -10 43 -10 50 0 10 -57 161 -89 236 -2 5 2 5 10 0 8 -5
23 -10 34 -11 11 -2 45 -11 75 -20 30 -9 57 -18 60 -18 21 -5 110 -50 110 -57
0 -4 6 -8 13 -8 6 0 20 -7 31 -15 17 -13 18 -16 3 -53 -23 -58 -5 -107 49
-135 69 -35 147 23 138 102 -6 54 -40 82 -103 87 -19 1 -40 8 -45 16 -6 8 -19
17 -28 21 -10 3 -18 11 -18 17 0 6 -4 8 -10 5 -5 -3 -10 -2 -10 3 0 4 -16 14
-35 22 -19 8 -35 18 -35 24 0 5 -3 7 -6 3 -3 -3 -27 2 -53 12 -25 11 -48 19
-51 19 -3 0 -12 3 -20 6 -8 2 -26 7 -40 9 -14 3 -36 8 -49 11 -13 3 -49 8 -80
11 -31 4 -65 8 -76 9 -11 2 -24 4 -29 5 -4 0 13 20 40 44 26 23 89 84 140 135
76 77 94 90 105 80 32 -30 98 -78 108 -78 6 0 11 -3 11 -8 0 -7 98 -48 141
-58 62 -15 109 -20 164 -17 57 2 149 19 170 32 6 3 15 6 21 7 11 2 76 33 114
55 87 50 299 238 300 265 0 7 -10 15 -22 19 -31 10 -37 12 -43 15 -3 1 -9 4
-15 5 -5 1 -11 3 -12 5 -4 2 -37 10 -63 15 -11 2 -20 4 -20 5 0 1 -7 3 -15 5
-61 13 -83 16 -140 20 -36 2 -67 5 -70 6 -17 4 -130 -6 -180 -16 -19 -4 -42
-8 -50 -9 -51 -7 -198 -68 -257 -108 -23 -15 -45 -28 -50 -28 -4 0 -3 4 2 8
32 22 200 247 298 398 63 97 68 101 134 132 105 48 152 62 228 69 58 4 73 2
84 -11 8 -9 11 -19 8 -23 -15 -15 30 -71 63 -77 3 -1 10 -5 16 -9 23 -14 87
18 106 54 48 93 -62 189 -145 127 -29 -22 -41 -25 -64 -18 -18 5 -111 -2 -148
-11 -58 -14 -74 -20 -132 -45 -44 -20 -47 -18 -25 19 23 37 120 230 150 297
29 65 147 170 262 233 65 35 131 58 183 61 24 2 27 -1 27 -26 0 -96 100 -139
168 -71 33 33 39 62 22 107 -20 53 -106 78 -149 43 -7 -6 -39 -12 -70 -13 -31
0 -68 -6 -82 -12 -15 -6 -30 -8 -33 -5 -3 4 -6 1 -6 -5 0 -7 -6 -12 -13 -12
-18 0 -67 -24 -67 -32 0 -5 -9 -8 -19 -8 -11 0 -21 -3 -23 -8 -3 -7 -82 -65
-117 -87 -11 -6 -13 -4 -7 11 27 64 89 245 117 338 26 86 38 110 56 119 13 6
23 14 23 19 0 5 5 6 10 3 6 -3 10 -1 10 4 0 6 3 10 8 9 4 -1 21 5 37 14 27 14
59 24 108 33 11 3 21 -4 27 -19 14 -39 59 -67 102 -64 21 1 38 6 38 11 0 4 4
6 9 3 5 -4 19 14 30 38 21 42 21 46 6 84 -12 30 -25 43 -54 54 -35 14 -41 13
-79 -4 -23 -11 -44 -28 -47 -39 -4 -10 -12 -19 -18 -20 -7 0 -23 -2 -37 -5
-14 -2 -34 -5 -45 -6 -11 -2 -26 -9 -33 -16 -8 -7 -17 -10 -22 -7 -4 3 -13 -2
-20 -10 -7 -8 -16 -12 -21 -9 -5 3 -9 0 -9 -5 0 -6 -6 -11 -14 -11 -10 0 -7
25 15 118 24 102 43 196 53 267 2 11 7 20 12 20 52 3 91 61 80 118 -9 47 -47
77 -98 77 -96 0 -134 -123 -55 -179 16 -12 18 -21 13 -62 -13 -96 -117 -523
-131 -537 -2 -2 -17 25 -35 59 -32 63 -91 143 -122 167 -10 8 -18 26 -18 44 0
39 -29 87 -57 94 -13 4 -23 10 -23 14 0 5 -20 2 -45 -7 -97 -33 -102 -149 -9
-188 33 -13 39 -13 75 4 l39 19 40 -45 c45 -51 76 -104 110 -185 l23 -55 -22
-63 c-67 -192 -235 -567 -291 -650 -10 -14 -31 -49 -48 -79 l-30 -54 3 129 c3
117 0 156 -20 279 -11 65 -79 197 -127 243 -24 23 -47 42 -51 42 -4 -1 -15 6
-24 15 -8 9 -28 19 -44 22 -16 3 -29 10 -29 15 0 5 -4 7 -9 3 -5 -3 -12 -2
-15 3 -3 5 -21 8 -41 7 -19 -1 -37 1 -39 4 -4 5 -111 6 -111 1 0 -1 -11 -3
-25 -4 -57 -6 -98 -17 -103 -29 -8 -21 30 -147 67 -221 51 -103 145 -225 271
-351 116 -116 159 -155 213 -195 37 -28 39 -39 12 -70 -11 -12 -22 -31 -25
-41 -4 -11 -11 -19 -16 -19 -5 0 -9 -5 -9 -11 0 -6 -6 -16 -12 -23 -7 -8 -20
-24 -28 -36 -26 -39 -92 -124 -112 -143 -10 -10 -18 -21 -18 -25 0 -4 -18 -26
-39 -50 -22 -24 -52 -58 -67 -77 -31 -39 -49 -46 -39 -15 11 34 8 205 -5 266
-7 33 -21 78 -32 101 -15 32 -17 46 -9 62 42 78 -44 170 -127 136 -32 -14 -62
-59 -62 -94 0 -57 50 -100 112 -96 35 2 37 1 58 -54 18 -45 23 -79 25 -181 4
-183 -6 -215 -86 -297 -36 -38 -94 -93 -129 -123 -34 -30 -67 -60 -74 -65 -6
-6 -36 -30 -66 -55 -30 -25 -64 -53 -74 -62 -33 -30 -36 -21 -16 50 49 176 74
401 55 495 -4 19 1 36 16 57 47 63 10 149 -67 157 -99 10 -147 -107 -73 -176
13 -12 35 -21 50 -21 15 0 29 -6 32 -14 7 -17 1 -245 -7 -266 -3 -8 -7 -31
-10 -50 -3 -19 -8 -44 -10 -55 -30 -139 -64 -255 -74 -255 -4 0 -18 -9 -32
-20 -45 -36 -129 -90 -140 -90 -5 0 -10 -4 -10 -10 0 -5 -7 -10 -15 -10 -8 0
-15 -5 -15 -11 0 -5 -4 -7 -10 -4 -5 3 -10 2 -10 -4 0 -5 -10 -13 -22 -16 -13
-4 -34 -18 -48 -30 -24 -23 -161 -97 -167 -91 -1 1 25 31 60 67 34 36 76 85
92 109 17 25 33 47 38 48 4 2 7 8 7 14 0 5 8 22 18 36 31 45 69 144 87 226 17
76 17 204 0 281 -13 58 -87 225 -100 225 -5 0 -85 -82 -85 -88 0 -2 -8 -12
-18 -21 -75 -69 -183 -252 -228 -386 -59 -178 -63 -358 -9 -517 l22 -66 -91
-44 c-50 -23 -97 -42 -103 -42 -7 1 -13 -2 -13 -6 0 -8 -49 -25 -62 -22 -5 1
-8 -2 -8 -6 0 -5 -18 -14 -39 -21 -22 -6 -52 -18 -67 -26 -15 -8 -31 -12 -36
-9 -4 3 -8 0 -8 -6 0 -6 -6 -10 -12 -8 -7 1 -23 -3 -35 -10 -13 -7 -23 -10
-23 -6 0 3 -6 1 -13 -5 -8 -6 -17 -8 -20 -4 -4 3 -7 1 -7 -6 0 -7 -7 -11 -15
-8 -8 4 -17 2 -19 -2 -3 -5 -20 -12 -38 -16 -18 -4 -35 -8 -38 -9 -3 -1 -11
-5 -17 -9 -7 -5 -17 -6 -22 -3 -5 3 14 30 43 58 109 112 188 232 226 348 18
54 21 80 17 152 -2 48 0 89 5 90 15 5 21 76 9 106 -25 59 -101 75 -153 32 -29
-24 -33 -34 -33 -75 0 -41 4 -51 33 -75 20 -17 42 -26 58 -24 35 3 48 -26 40
-100 -14 -145 -90 -278 -250 -438 -120 -119 -130 -127 -183 -130 -7 -1 -13 -4
-13 -8 0 -3 -10 -6 -22 -7 -13 -1 -81 -17 -153 -36 -71 -19 -150 -39 -175 -45
l-45 -10 30 21 c49 36 169 159 202 207 76 112 145 291 159 414 4 28 8 54 10
58 7 11 5 229 -2 288 -4 30 -7 61 -7 68 0 13 -16 1 -95 -73 -67 -63 -189 -191
-235 -246 -245 -300 -324 -535 -237 -703 16 -33 28 -61 26 -64 -3 -2 -16 -5
-30 -6 -14 0 -26 -3 -26 -6 0 -4 -10 -6 -22 -7 -22 -1 -73 -10 -73 -13 0 -2
-16 -4 -87 -13 -25 -4 -50 -7 -55 -8 -4 -1 -10 0 -13 1 -3 1 -25 4 -50 6 -25
2 -52 7 -60 10 -8 4 -28 8 -45 10 -16 1 -41 6 -55 9 -14 4 -34 8 -45 8 -32 3
-40 26 -18 50 49 56 61 188 28 305 -36 124 -194 371 -313 489 -23 23 -42 43
-42 45 0 3 -34 38 -75 79 -41 42 -75 74 -75 72 0 -3 -42 32 -65 54 -18 18 -24
-46 -20 -247 2 -140 7 -180 29 -265 28 -109 77 -219 134 -305 41 -63 181 -206
215 -220 18 -9 16 -10 -13 -6 -35 4 -75 13 -75 16 0 1 -11 3 -25 5 -14 2 -58
12 -97 23 -40 11 -73 17 -73 15 0 -3 -6 0 -14 6 -8 6 -18 11 -22 10 -5 -1 -16
1 -24 4 -8 3 -34 11 -58 17 -43 11 -85 43 -172 130 -143 144 -233 299 -246
423 -9 92 -2 114 36 112 47 -3 92 41 96 93 7 110 -141 149 -188 49 -15 -33 -9
-94 10 -106 6 -4 7 -29 3 -66 -6 -54 -4 -82 13 -165 17 -81 117 -236 227 -352
60 -64 73 -86 42 -69 -20 11 -136 51 -162 56 -9 2 -16 4 -16 5 0 1 -9 3 -19 5
-10 2 -22 9 -26 15 -4 7 -11 11 -16 11 -20 -2 -193 65 -304 117 -30 14 -57 26
-60 27 -3 1 -21 9 -41 19 l-35 18 22 76 c72 249 37 470 -115 722 -25 41 -50
80 -55 87 -6 6 -22 26 -36 44 -14 18 -51 60 -83 93 l-58 60 -18 -30 c-83 -136
-116 -324 -84 -479 18 -90 66 -201 128 -295 55 -84 48 -76 130 -160 34 -36 49
-57 35 -49 -14 8 -28 18 -31 22 -3 5 -9 9 -12 9 -17 0 -47 11 -47 18 0 4 -12
12 -27 19 -16 7 -53 29 -83 49 -30 20 -62 42 -71 47 -32 19 -131 86 -142 95
-7 6 -22 18 -34 28 -51 41 -131 487 -109 606 6 31 11 36 34 36 51 1 91 52 86
108 -5 63 -67 106 -124 87 -65 -22 -92 -90 -59 -145 17 -28 21 -55 24 -184 4
-166 4 -167 44 -331 16 -63 25 -115 22 -115 -3 0 -19 11 -34 24 -16 14 -46 39
-67 56 -22 18 -49 41 -62 52 -13 11 -38 33 -56 48 -121 104 -223 213 -228 246
-13 82 -12 272 2 324 27 104 29 106 83 106 49 0 68 10 89 51 29 53 -1 124 -58
140 -89 23 -157 -57 -119 -140 8 -19 8 -30 -2 -48 -7 -13 -14 -28 -16 -34 -1
-5 -10 -35 -18 -65 -16 -55 -22 -250 -9 -284 11 -29 -11 -17 -46 25 -19 23
-39 47 -44 53 -81 86 -296 380 -296 403 0 4 15 19 32 33 104 81 284 256 343
334 17 21 36 45 42 52 25 25 113 178 132 229 11 28 24 75 29 104 9 50 8 53
-14 61 -13 5 -40 10 -59 12 -20 1 -38 5 -40 8 -4 6 -109 3 -150 -3 -76 -13
-149 -42 -184 -73 -92 -83 -128 -144 -162 -270 -18 -65 -22 -109 -22 -245 l-1
-166 -34 56 c-81 132 -282 554 -299 626 -1 6 -14 42 -28 80 -23 63 -24 74 -13
110 17 56 63 141 106 194 48 60 51 62 79 44 13 -8 23 -12 23 -8 0 4 6 3 13 -2
19 -15 73 4 96 33 52 66 7 158 -77 160 -36 1 -46 -3 -72 -33 -20 -22 -30 -44
-30 -66 0 -23 -9 -40 -30 -61 -37 -35 -78 -93 -116 -165 l-28 -55 -18 60 c-10
32 -36 131 -57 219 -62 250 -73 325 -48 325 21 0 47 50 47 90 0 77 -107 120
-165 66z"/>
<path d="M10665 8468 c-7 -5 -13 -23 -13 -41 0 -31 1 -32 43 -34 24 -1 59 -9
78 -16 64 -27 63 -19 63 -606 l-1 -531 -32 -31 c-31 -31 -43 -35 -113 -38 -35
-1 -36 -2 -35 -38 l0 -38 278 -3 277 -2 0 38 0 39 -55 6 c-58 6 -97 28 -114
65 -7 13 -11 94 -11 196 l0 174 77 65 c42 36 81 63 87 60 6 -2 49 -60 96 -129
281 -413 313 -452 377 -479 65 -27 101 -30 417 -30 l310 0 1 38 1 37 -44 0
c-129 0 -158 66 -98 223 13 34 31 83 41 110 l17 47 253 0 253 0 46 -129 c52
-146 56 -179 23 -217 -19 -22 -34 -28 -80 -32 l-56 -4 1 -39 0 -39 263 0 262
0 0 40 c0 37 -2 40 -29 41 -32 2 -35 2 -65 12 -34 12 -50 46 -130 266 -69 192
-124 341 -300 826 l-69 190 -76 3 -75 3 -33 -93 c-18 -51 -39 -106 -46 -123
-7 -16 -61 -160 -119 -320 -59 -159 -118 -319 -132 -355 -13 -36 -38 -103 -54
-150 -17 -47 -39 -104 -50 -127 -10 -24 -19 -46 -19 -51 0 -4 -13 -23 -28 -41
-23 -28 -36 -34 -79 -38 -65 -7 -123 19 -180 80 -31 33 -244 324 -323 440 -8
12 -43 62 -78 110 -61 86 -63 89 -47 113 8 13 20 24 25 24 6 0 10 5 10 10 0 6
8 18 18 28 9 10 46 51 82 92 36 41 81 92 100 114 118 134 208 206 259 206 21
0 29 20 23 60 l-4 25 -201 -2 c-111 -1 -205 -2 -208 -2 -11 -2 -16 -48 -7 -65
5 -9 21 -16 36 -16 59 0 68 -48 23 -125 -16 -27 -37 -59 -48 -70 -10 -11 -45
-52 -78 -90 -98 -114 -110 -127 -120 -139 -5 -6 -50 -58 -100 -116 -49 -58
-98 -114 -107 -124 -17 -19 -18 -7 -18 278 0 327 2 341 60 371 17 9 51 16 75
17 l45 1 0 38 c0 24 -5 39 -12 40 -65 5 -523 2 -533 -3z m1970 -393 c24 -71
67 -195 94 -274 28 -80 49 -146 47 -149 -6 -6 -415 -6 -421 0 -3 2 6 33 19 69
84 223 137 374 157 439 12 41 27 86 33 99 10 23 11 22 19 -15 4 -21 27 -97 52
-169z"/>
<path d="M7009 8445 c-1 -11 -3 -40 -4 -65 -4 -55 -7 -185 -6 -222 1 -27 3
-28 50 -28 41 0 50 3 49 18 -4 79 32 167 81 199 33 22 42 23 268 23 l235 0
-23 -37 c-12 -21 -32 -54 -44 -73 -37 -57 -428 -712 -448 -750 -11 -19 -25
-42 -33 -51 -8 -8 -14 -18 -14 -21 0 -3 -36 -65 -80 -138 -64 -105 -80 -140
-80 -171 l0 -39 488 0 488 0 1 43 c1 23 3 98 4 166 l4 125 -47 1 c-52 2 -50 5
-63 -95 -8 -59 -33 -100 -75 -124 -32 -19 -53 -21 -293 -21 -142 0 -260 2
-263 6 -2 4 82 148 186 320 104 173 201 334 215 359 14 25 90 152 168 282 139
230 152 258 138 308 0 3 -203 5 -451 5 -444 0 -450 0 -451 -20z"/>
<path d="M8630 8459 c0 -6 -11 -38 -24 -72 -14 -34 -48 -125 -76 -202 -28 -77
-73 -198 -100 -270 -27 -71 -85 -229 -130 -350 -44 -121 -92 -248 -106 -283
-33 -77 -71 -112 -125 -112 -39 0 -39 0 -39 -40 l0 -40 232 2 232 3 1 27 c3
39 -6 47 -55 49 -84 5 -118 35 -115 101 1 21 22 92 45 158 l43 120 255 -2 255
-3 26 -75 c14 -41 29 -80 33 -86 10 -15 20 -62 24 -114 6 -62 -18 -89 -83 -96
-68 -8 -70 -8 -71 -48 l-1 -36 264 0 265 0 0 40 c0 37 -2 40 -29 40 -41 0 -84
18 -102 43 -15 20 -83 202 -255 682 -36 99 -72 198 -81 220 -8 22 -22 60 -30
85 -8 25 -20 59 -27 75 -8 17 -26 67 -42 113 l-28 82 -78 0 c-49 0 -78 -4 -78
-11z m55 -221 c4 -18 27 -91 51 -163 25 -71 56 -164 70 -205 14 -41 29 -84 34
-95 24 -55 42 -116 37 -121 -6 -7 -415 -9 -421 -3 -3 4 133 384 145 404 3 6
19 56 35 112 16 57 32 103 36 103 3 0 9 -15 13 -32z"/>
<path d="M9380 8462 c-6 -2 -10 -19 -10 -37 0 -35 13 -45 56 -45 13 0 37 -12
53 -28 24 -22 135 -206 274 -452 10 -19 46 -81 78 -137 l59 -102 0 -196 c0
-261 -10 -282 -134 -293 -34 -3 -64 -9 -67 -14 -3 -5 -4 -22 -1 -38 l4 -30
293 0 293 0 4 40 4 40 -51 1 c-72 1 -115 19 -136 58 -15 28 -17 62 -18 236 l0
203 34 57 c19 32 35 59 35 61 0 1 29 53 65 115 36 61 65 113 65 115 0 1 38 69
85 151 89 155 138 213 179 213 14 0 28 6 33 13 12 19 11 67 -1 68 -6 1 -109 2
-230 3 -211 1 -219 1 -226 -19 -13 -36 3 -60 44 -62 96 -3 131 -33 122 -101
-7 -54 -19 -79 -123 -265 -46 -82 -97 -176 -114 -209 l-31 -61 -13 29 c-47
107 -101 215 -156 314 -88 156 -103 190 -103 228 0 48 21 62 92 65 l62 2 0 38
c0 20 -3 37 -7 38 -21 3 -504 4 -513 1z"/>
</g>
</svg>
